<?xml version="1.0" encoding="UTF-8" standalone="no"?>
<svg
   id="Слой_1"
   viewBox="-380.2 274.7 65.7 65.8"
   version="1.1"
   sodipodi:docname="Google.svg"
   inkscape:version="1.3-dev (fe4297a9c, 2023-01-13)"
   xmlns:inkscape="http://www.inkscape.org/namespaces/inkscape"
   xmlns:sodipodi="http://sodipodi.sourceforge.net/DTD/sodipodi-0.dtd"
   xmlns="http://www.w3.org/2000/svg"
   xmlns:svg="http://www.w3.org/2000/svg">
  <sodipodi:namedview
     id="namedview1"
     pagecolor="#ffffff"
     bordercolor="#000000"
     borderopacity="0.25"
     inkscape:showpageshadow="2"
     inkscape:pageopacity="0.0"
     inkscape:pagecheckerboard="0"
     inkscape:deskcolor="#d1d1d1"
     inkscape:lockguides="true"
     inkscape:zoom="12.705167"
     inkscape:cx="32.427753"
     inkscape:cy="39.236007"
     inkscape:window-width="1920"
     inkscape:window-height="1009"
     inkscape:window-x="-8"
     inkscape:window-y="-8"
     inkscape:window-maximized="1"
     inkscape:current-layer="Слой_1" />
  <defs
     id="defs6" />
  <style
     id="style1">.st0{fill:#e0e0e0}.st1{fill:#fff}.st2{clip-path:url(#SVGID_2_);fill:#fbbc05}.st3{clip-path:url(#SVGID_4_);fill:#ea4335}.st4{clip-path:url(#SVGID_6_);fill:#34a853}.st5{clip-path:url(#SVGID_8_);fill:#4285f4}</style>
  <circle
     style="display:inline;fill:#ababab;fill-opacity:1;stroke-width:1.17298"
     id="path33"
     cx="-347.82999"
     cy="307.07001"
     r="32.369999" />
  <path
     style="fill:#ab4e69;fill-opacity:1;stroke-width:0.0874067"
     d="m -349.56633,328.45113 c -4.18864,-0.48929 -7.61115,-1.8002 -11.02197,-4.2217 -0.98169,-0.69695 -3.51063,-3.17194 -4.29638,-4.20473 -2.37957,-3.12769 -3.7734,-6.52643 -4.26626,-10.40293 -0.139,-1.09334 -0.13954,-4.26253 -8.8e-4,-5.22937 0.86663,-6.04266 3.84779,-11.03717 8.70496,-14.58392 2.69744,-1.96971 5.89328,-3.31197 9.45745,-3.97217 0.96181,-0.17816 5.32196,-0.26141 6.34702,-0.12119 4.0601,0.5554 7.48375,1.96308 10.86545,4.46749 0.47951,0.35513 0.87185,0.67467 0.87185,0.71011 0,0.11128 -6.23626,6.15263 -6.35113,6.15263 -0.0601,0 -0.40083,-0.19243 -0.75724,-0.42762 -1.50662,-0.9942 -3.27111,-1.73461 -4.89117,-2.05243 -1.06457,-0.20885 -3.90812,-0.20301 -4.92686,0.0101 -6.6929,1.40019 -11.06076,7.19684 -10.39324,13.79303 0.62072,6.13377 5.658,10.91301 11.93741,11.3259 4.06875,0.26754 7.63632,-0.87095 9.99776,-3.19054 0.83545,-0.82064 1.34127,-1.50435 1.85353,-2.50543 0.34063,-0.66567 0.87929,-2.12351 0.87929,-2.37973 0,-0.12567 -0.54493,-0.13851 -5.87784,-0.13851 h -5.87783 v -4.14892 -4.14892 h 10.24711 c 9.6836,0 10.2495,0.008 10.29073,0.15127 0.024,0.0832 0.11616,0.55967 0.20483,1.05884 0.22163,1.24782 0.21998,4.67582 -0.003,6.18015 -0.71954,4.85468 -2.56429,8.72104 -5.66182,11.86638 -2.72614,2.76822 -6.27958,4.70718 -10.2607,5.59881 -1.53876,0.34462 -2.87019,0.46976 -4.86137,0.45691 -1.06949,-0.007 -2.06387,-0.0265 -2.20971,-0.0435 z"
     id="path29" />
</svg>
