<?xml version="1.0" encoding="UTF-8" standalone="no"?>
<svg
   id="Слой_1"
   viewBox="-380.2 274.7 65.7 65.8"
   version="1.1"
   xmlns="http://www.w3.org/2000/svg"
   xmlns:svg="http://www.w3.org/2000/svg">
  <defs
     id="defs6" />
  <style
     id="style1">.st0{fill:#e0e0e0}.st1{fill:#fff}.st2{clip-path:url(#SVGID_2_);fill:#fbbc05}.st3{clip-path:url(#SVGID_4_);fill:#ea4335}.st4{clip-path:url(#SVGID_6_);fill:#34a853}.st5{clip-path:url(#SVGID_8_);fill:#4285f4}</style>
  <ellipse
     style="display:inline;fill:#ababab;fill-opacity:1;stroke-width:1.1712"
     id="path33"
     cx="-347.28149"
     cy="307.15649"
     rx="32.310501"
     ry="32.330502" />
  <path
     style="fill:#ab4e69;fill-opacity:1;stroke-width:0.0883883"
     d="m 31.156892,54.477449 c -4.188646,-0.500343 -7.611145,-1.840861 -11.021954,-4.317062 -0.981684,-0.712688 -3.510627,-3.243592 -4.296374,-4.299704 -2.379569,-3.198347 -3.773394,-6.67386 -4.266251,-10.637927 -0.139007,-1.11804 -0.13954,-4.358819 -8.79e-4,-5.347495 0.866621,-6.179148 3.847778,-11.286487 8.704931,-14.913352 2.697449,-2.014203 5.893274,-3.386783 9.457448,-4.061896 0.961803,-0.182181 5.321951,-0.267312 6.34701,-0.123924 4.06009,0.567937 7.48373,2.007418 10.865425,4.568404 0.479516,0.363142 0.871848,0.689905 0.871848,0.726141 0,0.113795 -6.23625,6.291618 -6.351121,6.291618 -0.06007,0 -0.400822,-0.196777 -0.757236,-0.437282 -1.506617,-1.016656 -3.271102,-1.773795 -4.891155,-2.098793 -1.064578,-0.213565 -3.908123,-0.207594 -4.926857,0.01034 -6.69289,1.431817 -11.060741,7.359411 -10.393224,14.104603 0.620721,6.272323 5.657988,11.159515 11.937387,11.581739 4.068754,0.273582 7.636305,-0.890634 9.997754,-3.262614 0.835448,-0.839174 1.34126,-1.538334 1.853519,-2.562029 0.340626,-0.680706 0.879283,-2.171474 0.879283,-2.433473 0,-0.12851 -0.544931,-0.141642 -5.877826,-0.141642 H 33.410795 V 32.88046 28.63782 h 10.247092 c 9.683591,0 10.249492,0.0085 10.290719,0.154679 0.02399,0.08507 0.116168,0.572315 0.20483,1.082757 0.221637,1.276008 0.219984,4.781439 -0.003,6.319767 -0.719533,4.964338 -2.56429,8.91803 -5.661809,12.134418 -2.726134,2.830749 -6.279572,4.813504 -10.260684,5.725278 -1.538758,0.352413 -2.870188,0.48038 -4.861359,0.467236 -1.069499,-0.0071 -2.063868,-0.02709 -2.209709,-0.04451 z"
     id="path29"
     transform="translate(-380.2,274.7)" />
</svg>
