<svg width="64" height="59" viewBox="0 0 64 59" fill="none" xmlns="http://www.w3.org/2000/svg">
<path d="M31.854 27.2189C31.6851 27.2374 31.5225 27.2939 31.3784 27.3842L9.57472 41.0399C9.04476 41.3719 8.88307 42.0723 9.21358 42.6045L11.0557 45.5707C11.3862 46.1029 12.0838 46.2653 12.6138 45.9334L13.5134 45.3698V53.9328C13.5134 56.2457 15.3805 58.1206 17.6837 58.1206C26.1096 58.3677 25.184 59.3083 25.0747 53.4917C25.0748 48.337 28.2549 44.1583 32.1777 44.1583C36.1005 44.1583 39.2806 48.337 39.2807 53.4917C39.3121 58.4417 38.3152 58.2477 46.6716 58.1206C48.9747 58.1206 50.8418 56.2457 50.8418 53.9328V45.4555L51.7415 46.0191C52.2714 46.351 52.969 46.1886 53.2995 45.6564L55.1417 42.6904C55.4722 42.1582 55.3105 41.4577 54.7805 41.1258L32.9769 27.4698C32.806 27.3656 32.6107 27.3086 32.4109 27.3049C32.2354 27.2295 32.0438 27.1999 31.854 27.2189Z" fill="#020202"/>
<path d="M1.38879 20.5366C3.39674 18.3752 5.41584 17.6085 7.21868 17.5499C11.0431 17.4257 13.6126 23.3983 13.6005 27.3365L13.5914 30.2804C13.5793 34.2186 10.8192 35.9208 7.64994 33.7379C6.32796 32.8274 4.87025 31.805 3.36896 30.7341C0.17186 28.4536 -1.27493 23.4039 1.38879 20.5366Z" fill="#020202"/>
<path d="M14.48 5.72227C18.9589 -0.0924681 22.7154 -0.639686 25.4639 0.460314C29.0413 1.89202 29.9766 8.43405 29.3124 12.3154L27.2881 24.1451C26.6239 28.0264 23.8572 29.0159 21.4845 26.035C19.5663 23.6253 17.2392 20.6063 14.8821 17.4599C12.5245 14.313 12.0831 8.83408 14.48 5.72227Z" fill="#020202"/>
<path d="M62.6112 21.8577C60.6033 19.6963 58.5842 18.9295 56.7813 18.871C52.9569 18.7468 50.3874 24.7193 50.3995 28.6575L50.4086 31.6014C50.4206 35.5396 53.1808 37.2418 56.35 35.0589C57.672 34.1484 59.1297 33.126 60.631 32.0552C63.8281 29.7746 65.2749 24.725 62.6112 21.8577H62.6112Z" fill="#020202"/>
<path d="M48.9484 7.28563C44.9345 2.85309 41.6644 2.20603 39.223 2.94345C35.5588 4.05023 34.7829 10.7081 35.6598 14.5466L37.7945 23.8915C38.6713 27.73 41.5802 28.6405 43.9147 25.6143C45.4397 23.6375 47.215 21.2704 49.0231 18.7969C51.3438 15.6224 51.5835 10.1955 48.9484 7.28563V7.28563Z" fill="#020202"/>
</svg>
